<?xml version="1.0" standalone="no"?>
<!DOCTYPE svg PUBLIC "-//W3C//DTD SVG 20010904//EN"
 "http://www.w3.org/TR/2001/REC-SVG-20010904/DTD/svg10.dtd">
<svg version="1.0" xmlns="http://www.w3.org/2000/svg"
 width="820.000000pt" height="500.000000pt" viewBox="0 0 820.000000 500.000000"
 preserveAspectRatio="xMidYMid meet">

<g transform="translate(0.000000,500.000000) scale(0.100000,-0.100000)"
fill="#000000" stroke="none">
<path d="M4026 3233 l7 -1278 21 -15 c138 -99 327 -182 534 -236 73 -19 137
-34 142 -34 6 0 10 435 10 1178 0 1110 -1 1180 -17 1194 -25 21 -691 468 -698
468 -3 0 -2 -575 1 -1277z"/>
<path d="M3853 4428 c-32 -28 -65 -58 -74 -67 -25 -25 -71 -64 -111 -95 -21
-15 -35 -32 -32 -37 3 -5 2 -8 -3 -7 -13 4 -123 -92 -120 -105 1 -7 -6 -11
-17 -9 -13 3 -17 -1 -13 -12 3 -8 1 -18 -5 -22 -7 -4 -8 -3 -4 4 14 22 -6 12
-48 -25 -23 -21 -85 -76 -137 -122 -52 -46 -110 -97 -129 -115 -19 -17 -69
-59 -110 -94 -41 -35 -74 -67 -73 -73 2 -5 -1 -8 -6 -6 -4 1 -31 -17 -60 -41
l-51 -43 0 -867 1 -867 75 -48 c93 -60 198 -110 234 -111 16 -1 26 -3 24 -6
-21 -20 268 -52 331 -36 l28 7 -38 39 c-21 22 -41 37 -45 35 -4 -3 -16 5 -26
18 -16 18 -16 19 -1 8 9 -7 17 -9 17 -3 0 15 -26 33 -35 24 -5 -4 -6 -2 -2 4
3 5 -21 44 -54 85 -32 40 -59 78 -59 82 0 5 -6 5 -12 1 -7 -4 -10 -4 -6 1 11
11 -11 47 -24 39 -6 -4 -8 -3 -4 4 3 5 -12 43 -33 84 -22 40 -47 100 -55 133
-21 77 -21 240 -1 288 8 19 12 37 10 41 -3 3 -2 4 2 1 3 -3 14 2 24 11 11 9
35 16 63 16 41 0 61 -10 166 -77 66 -42 120 -82 120 -88 0 -20 16 -38 36 -41
10 -2 18 -8 17 -13 -1 -6 11 -23 27 -38 24 -23 32 -26 44 -16 10 8 16 9 21 1
6 -10 -1 -14 -20 -11 -13 2 64 -71 135 -129 30 -25 64 -53 75 -63 19 -18 20
-18 23 3 2 12 -2 28 -10 37 -9 12 -10 15 0 9 9 -6 12 233 12 1178 0 652 -2
1186 -5 1186 -3 0 -31 -23 -62 -52z m-666 -623 c0 -8 -4 -12 -9 -9 -5 3 -6 10
-3 15 9 13 12 11 12 -6z"/>
<path d="M4790 2566 l0 -904 68 -9 c87 -10 427 -10 515 0 l67 9 0 687 0 687
-37 25 c-21 14 -155 103 -298 199 -143 96 -272 183 -287 193 l-28 17 0 -904z"/>
<path d="M2689 2947 c-47 -29 -127 -76 -177 -105 l-92 -53 0 -228 0 -229 56
-83 c87 -130 219 -288 279 -333 l30 -23 0 553 c0 305 -2 554 -5 553 -3 0 -44
-23 -91 -52z"/>
<path d="M2050 2615 c-33 -40 -16 -160 36 -254 22 -39 24 -61 6 -61 -4 0 -29
27 -55 60 -96 119 -226 190 -318 175 -55 -9 -67 -37 -51 -112 16 -76 105 -257
185 -377 37 -55 66 -101 64 -102 -2 -2 -28 15 -60 37 -31 22 -71 43 -90 46
-28 4 -35 1 -45 -21 -17 -39 -14 -105 7 -152 27 -59 132 -224 200 -312 102
-134 221 -262 335 -359 398 -341 876 -535 1418 -575 205 -15 505 1 704 37 659
122 1288 473 1882 1050 111 107 272 282 309 334 17 25 62 44 -433 -178 -398
-177 -420 -184 -702 -221 -251 -33 -555 -25 -772 20 -259 54 -509 167 -710
321 -111 85 -300 249 -405 351 -113 110 -222 181 -277 182 -33 1 -44 -4 -62
-27 -19 -25 -21 -41 -21 -140 1 -124 14 -177 70 -281 45 -83 158 -233 259
-346 47 -52 86 -98 86 -102 0 -11 -110 -23 -205 -21 -169 2 -324 55 -491 165
-177 117 -338 284 -477 496 -73 109 -197 247 -290 320 -81 63 -83 64 -97 47z"/>
</g>
</svg>
