<svg width="449" height="271" viewBox="0 0 449 271" fill="none" xmlns="http://www.w3.org/2000/svg">
<path d="M339.547 96.7362C309.165 118.479 281.667 144.812 259.128 174.808C239.785 200.55 224.094 228.989 212.167 258.75C204.728 234.046 201.306 207.761 203.362 181.852C206.353 144.157 220.938 107.259 243.866 76.7781C265.857 47.5409 295.524 24.2081 329.568 11.0336C351.821 2.42196 375.945 -1.84937 399.422 0.760894C416.492 2.65889 433.22 8.19475 448.437 16.023C445.03 27.3402 441.328 38.5552 437.577 49.7758C428.907 75.7172 419.978 101.69 407.64 126.087C396.207 148.693 381.847 169.946 364.495 188.602C327.353 228.537 276.503 256.576 224.201 270.783C236.132 233.21 253.755 197.057 276.738 164.829C294.74 139.584 316.031 116.749 339.547 96.7362Z" fill="#6633F6"/>
<path d="M15.2697 7.34668C51.5631 14.946 87.0682 28.0432 119.264 46.8428C153.048 66.5699 183.187 92.576 208.402 122.211C204.228 134.106 200.815 146.266 198.274 158.646C195.23 173.483 193.44 188.634 192.848 203.839C178.729 197.018 165.169 188.984 152.45 179.731C129.297 162.887 108.929 142.003 92.3075 118.807C109.582 149.635 133.712 177.589 162.603 198.161C172.144 204.955 182.205 210.944 192.63 216.195C192.681 230.982 193.849 245.753 196.082 260.266C161.475 258.71 126.039 249.859 96.0734 232.003C60.2067 210.631 32.1777 176.358 15.2697 137.43C4.53793 112.722 -1.71363 86.1378 0.413299 59.8874C1.88437 41.7336 7.3622 23.7395 15.2697 7.34668Z" fill="#6633F6"/>
</svg>
